<svg width="58" height="49" viewBox="0 0 58 49" fill="none" xmlns="http://www.w3.org/2000/svg">
<path d="M22.1415 0.00292969L13.09 36.4086L11.4443 27.9467C14.7357 27.9467 17.41 28.9306 19.4672 30.8985C21.5243 32.7352 22.5529 35.2278 22.5529 38.3764C22.5529 41.525 21.5243 44.0833 19.4672 46.0511C17.41 48.019 14.8729 49.0029 11.8557 49.0029C8.56431 49.0029 5.89002 48.019 3.83288 46.0511C1.91288 43.9521 0.952881 41.3938 0.952881 38.3764C0.952881 37.1957 1.02145 36.1462 1.15859 35.2278C1.29574 34.3095 1.57002 33.1944 1.98145 31.8824C2.39288 30.5705 2.94145 28.9962 3.62717 27.1596L12.2672 0.00292969H22.1415ZM57.1129 0.00292969L48.0614 36.4086L46.4157 27.9467C49.7072 27.9467 52.3815 28.9306 54.4386 30.8985C56.4957 32.7352 57.5243 35.2278 57.5243 38.3764C57.5243 41.525 56.4957 44.0833 54.4386 46.0511C52.3815 48.019 49.8443 49.0029 46.8272 49.0029C43.5357 49.0029 40.8614 48.019 38.8043 46.0511C36.8843 43.9521 35.9243 41.3938 35.9243 38.3764C35.9243 37.1957 35.9929 36.1462 36.13 35.2278C36.2672 34.3095 36.5415 33.1944 36.9529 31.8824C37.3643 30.5705 37.9129 28.9962 38.5986 27.1596L47.2386 0.00292969H57.1129Z" fill="#281550"/>
</svg>
